HIERARCHY
ROOT reference
{
  OFFSET 0 0 0
  CHANNELS 6 Xposition Yposition Zposition Zrotation Xrotation Yrotation
  JOINT Hips
  {
    OFFSET 340.57 87.5694 214.797
    CHANNELS 3 Zrotation Xrotation Yrotation
    JOINT RightUpLeg
    {
      OFFSET -9.35418 -1.55218 -0.019184
      CHANNELS 3 Zrotation Xrotation Yrotation
      JOINT RightLeg
      {
        OFFSET -0.0482219 -41.8948 0.0725956
        CHANNELS 3 Zrotation Xrotation Yrotation
        JOINT RightFoot
        {
          OFFSET -1.00159 -42.3965 -1.97064
          CHANNELS 3 Zrotation Xrotation Yrotation
          End Site
          {
            OFFSET 0 -7.69 17.5
          }
        }
      }
    }
    JOINT LeftUpLeg
    {
      OFFSET 9.33628 -1.64535 -0.0795185
      CHANNELS 3 Zrotation Xrotation Yrotation
      JOINT LeftLeg
      {
        OFFSET 0.124871 -41.8725 -0.08325
        CHANNELS 3 Zrotation Xrotation Yrotation
        JOINT LeftFoot
        {
          OFFSET 0.728222 -40.8097 2.1196
          CHANNELS 3 Zrotation Xrotation Yrotation
          End Site
          {
            OFFSET 0 -7.69 17.5
          }
        }
      }
    }
    JOINT Spine
    {
      OFFSET -0.0135102 14.2943 0.0647361
      CHANNELS 3 Zrotation Xrotation Yrotation
      JOINT Spine1
      {
        OFFSET 0.0181502 9.72385 0.0148045
        CHANNELS 3 Zrotation Xrotation Yrotation
        JOINT Spine2
        {
          OFFSET 0.0557859 10.1166 -0.00979693
          CHANNELS 3 Zrotation Xrotation Yrotation
          JOINT Spine3
          {
            OFFSET 0.0359868 9.71757 0.00306838
            CHANNELS 3 Zrotation Xrotation Yrotation
            JOINT Neck
            {
              OFFSET 0.139197 10.3803 0.0501204
              CHANNELS 3 Zrotation Xrotation Yrotation
              JOINT Head
              {
                OFFSET 0.148012 9.47645 -0.000545472
                CHANNELS 3 Zrotation Xrotation Yrotation
                End Site
                {
                  OFFSET 0 15.95 0
                }
              }
            }
            JOINT RightShoulder
            {
              OFFSET -3.16276 6.92807 0.0312834
              CHANNELS 3 Zrotation Xrotation Yrotation
              JOINT RightArm
              {
                OFFSET -12.7681 0.0492996 0.0890957
                CHANNELS 3 Zrotation Xrotation Yrotation
                JOINT RightForeArm
                {
                  OFFSET -26.4761 -0.090776 0.147076
                  CHANNELS 3 Zrotation Xrotation Yrotation
                  JOINT RightHand
                  {
                    OFFSET -25.9655 0.0607057 -0.248467
                    CHANNELS 3 Zrotation Xrotation Yrotation
                    JOINT RightHandThumb1
                    {
                      OFFSET -2.48905 0.190105 3.12053
                      CHANNELS 3 Zrotation Xrotation Yrotation
                      JOINT RightHandThumb2
                      {
                        OFFSET -3.68274 0 0
                        CHANNELS 3 Zrotation Xrotation Yrotation
                        JOINT RightHandThumb3
                        {
                          OFFSET -2.55832 0 0
                          CHANNELS 3 Zrotation Xrotation Yrotation
                          End Site
                          {
                            OFFSET -2.194 0 0
                          }
                        }
                      }
                    }
                    JOINT RightInHandIndex
                    {
                      OFFSET -3.22368 0.508421 1.97842
                      CHANNELS 3 Zrotation Xrotation Yrotation
                      JOINT RightHandIndex1
                      {
                        OFFSET -5.21684 -0.091368 0.999158
                        CHANNELS 3 Zrotation Xrotation Yrotation
                        JOINT RightHandIndex2
                        {
                          OFFSET -3.61937 0 0
                          CHANNELS 3 Zrotation Xrotation Yrotation
                          JOINT RightHandIndex3
                          {
                            OFFSET -2.0521 0 0
                            CHANNELS 3 Zrotation Xrotation Yrotation
                            End Site
                            {
                              OFFSET -1.805 0 0
                            }
                          }
                        }
                      }
                    }
                    JOINT RightInHandMiddle
                    {
                      OFFSET -3.38211 0.517263 0.756737
                      CHANNELS 3 Zrotation Xrotation Yrotation
                      JOINT RightHandMiddle1
                      {
                        OFFSET -5.17411 -0.084 0.313895
                        CHANNELS 3 Zrotation Xrotation Yrotation
                        JOINT RightHandMiddle2
                        {
                          OFFSET -3.94947 0 0
                          CHANNELS 3 Zrotation Xrotation Yrotation
                          JOINT RightHandMiddle3
                          {
                            OFFSET -2.47579 0 0
                            CHANNELS 3 Zrotation Xrotation Yrotation
                            End Site
                            {
                              OFFSET -1.975 0 0
                            }
                          }
                        }
                      }
                    }
                    JOINT RightInHandRing
                    {
                      OFFSET -3.36516 0.537895 -0.128947
                      CHANNELS 3 Zrotation Xrotation Yrotation
                      JOINT RightHandRing1
                      {
                        OFFSET -4.63474 -0.022105 -0.478947
                        CHANNELS 3 Zrotation Xrotation Yrotation
                        JOINT RightHandRing2
                        {
                          OFFSET -3.44238 0 0
                          CHANNELS 3 Zrotation Xrotation Yrotation
                          JOINT RightHandRing3
                          {
                            OFFSET -2.3881 0 0
                            CHANNELS 3 Zrotation Xrotation Yrotation
                            End Site
                            {
                              OFFSET -1.857 0 0
                            }
                          }
                        }
                      }
                    }
                    JOINT RightInHandPinky
                    {
                      OFFSET -3.16105 0.469368 -1.20179
                      CHANNELS 3 Zrotation Xrotation Yrotation
                      JOINT RightHandPinky1
                      {
                        OFFSET -4.14105 -0.022105 -1.09053
                        CHANNELS 3 Zrotation Xrotation Yrotation
                        JOINT RightHandPinky2
                        {
                          OFFSET -2.75653 0 0
                          CHANNELS 3 Zrotation Xrotation Yrotation
                          JOINT RightHandPinky3
                          {
                            OFFSET -1.74189 0 0
                            CHANNELS 3 Zrotation Xrotation Yrotation
                            End Site
                            {
                              OFFSET -1.645 0 0
                            }
                          }
                        }
                      }
                    }
                  }
                }
              }
            }
            JOINT LeftShoulder
            {
              OFFSET 3.20588 6.97332 0.0254387
              CHANNELS 3 Zrotation Xrotation Yrotation
              JOINT LeftArm
              {
                OFFSET 12.8648 0.0341024 0.0247643
                CHANNELS 3 Zrotation Xrotation Yrotation
                JOINT LeftForeArm
                {
                  OFFSET 26.5059 -0.0470976 -0.0807017
                  CHANNELS 3 Zrotation Xrotation Yrotation
                  JOINT LeftHand
                  {
                    OFFSET 26.0013 -0.0100885 -0.0649647
                    CHANNELS 3 Zrotation Xrotation Yrotation
                    JOINT LeftHandThumb1
                    {
                      OFFSET 2.48905 0.190105 3.12053
                      CHANNELS 3 Zrotation Xrotation Yrotation
                      JOINT LeftHandThumb2
                      {
                        OFFSET 3.68274 0 0
                        CHANNELS 3 Zrotation Xrotation Yrotation
                        JOINT LeftHandThumb3
                        {
                          OFFSET 2.55832 0 0
                          CHANNELS 3 Zrotation Xrotation Yrotation
                          End Site
                          {
                            OFFSET 2.194 0 0
                          }
                        }
                      }
                    }
                    JOINT LeftInHandIndex
                    {
                      OFFSET 3.22368 0.508421 1.97842
                      CHANNELS 3 Zrotation Xrotation Yrotation
                      JOINT LeftHandIndex1
                      {
                        OFFSET 5.21684 -0.091368 0.999158
                        CHANNELS 3 Zrotation Xrotation Yrotation
                        JOINT LeftHandIndex2
                        {
                          OFFSET 3.61937 0 0
                          CHANNELS 3 Zrotation Xrotation Yrotation
                          JOINT LeftHandIndex3
                          {
                            OFFSET 2.0521 0 0
                            CHANNELS 3 Zrotation Xrotation Yrotation
                            End Site
                            {
                              OFFSET 1.805 0 0
                            }
                          }
                        }
                      }
                    }
                    JOINT LeftInHandMiddle
                    {
                      OFFSET 3.38211 0.517263 0.756737
                      CHANNELS 3 Zrotation Xrotation Yrotation
                      JOINT LeftHandMiddle1
                      {
                        OFFSET 5.17411 -0.084 0.313895
                        CHANNELS 3 Zrotation Xrotation Yrotation
                        JOINT LeftHandMiddle2
                        {
                          OFFSET 3.94947 0 0
                          CHANNELS 3 Zrotation Xrotation Yrotation
                          JOINT LeftHandMiddle3
                          {
                            OFFSET 2.47579 0 0
                            CHANNELS 3 Zrotation Xrotation Yrotation
                            End Site
                            {
                              OFFSET 1.975 0 0
                            }
                          }
                        }
                      }
                    }
                    JOINT LeftInHandRing
                    {
                      OFFSET 3.36516 0.537895 -0.128947
                      CHANNELS 3 Zrotation Xrotation Yrotation
                      JOINT LeftHandRing1
                      {
                        OFFSET 4.63474 -0.022105 -0.478947
                        CHANNELS 3 Zrotation Xrotation Yrotation
                        JOINT LeftHandRing2
                        {
                          OFFSET 3.44238 0 0
                          CHANNELS 3 Zrotation Xrotation Yrotation
                          JOINT LeftHandRing3
                          {
                            OFFSET 2.3881 0 0
                            CHANNELS 3 Zrotation Xrotation Yrotation
                            End Site
                            {
                              OFFSET 1.857 0 0
                            }
                          }
                        }
                      }
                    }
                    JOINT LeftInHandPinky
                    {
                      OFFSET 3.16105 0.469368 -1.20179
                      CHANNELS 3 Zrotation Xrotation Yrotation
                      JOINT LeftHandPinky1
                      {
                        OFFSET 4.14105 -0.022105 -1.09053
                        CHANNELS 3 Zrotation Xrotation Yrotation
                        JOINT LeftHandPinky2
                        {
                          OFFSET 2.75653 0 0
                          CHANNELS 3 Zrotation Xrotation Yrotation
                          JOINT LeftHandPinky3
                          {
                            OFFSET 1.74189 0 0
                            CHANNELS 3 Zrotation Xrotation Yrotation
                            End Site
                            {
                              OFFSET 1.645 0 0
                            }
                          }
                        }
                      }
                    }
                  }
                }
              }
            }
          }
        }
      }
    }
  }
}
MOTION
Frames: 2
Frame Time: 0.00833333
4.500000000000000000e+02 0.000000000000000000e+00 0.000000000000000000e+00 0.000000000000000000e+00 0.000000000000000000e+00 0.000000000000000000e+00 8.929520184890777854e-03 7.931231116996093067e-02 1.773958719932362538e-01 -4.020413132720115218e-02 -2.959337699099283403e-02 -5.652050529342784735e-01 -3.219285406154471785e-01 -9.216322380302352513e-02 8.431977916997885902e-01 8.683555604629321356e-02 5.414070576040634630e-02 -4.328709910037992770e-01 3.163475309690369497e-02 -1.630360805683028214e-01 -2.380444655522859498e-01 3.631480501248853660e-02 5.175228077209102773e-02 3.189748799745970725e-02 -3.063759462986505033e-01 1.084090562703049765e-01 -1.611508537036154542e-01 4.711167371052950303e-02 1.376837289040763572e-02 -1.068831280692591201e-01 1.034033677029146982e-02 -9.857391874942533425e-03 -2.496765569159282300e-02 1.782135809061330400e-02 1.286641862409084944e-02 -4.490957965127346380e-02 5.755807109156963787e-03 1.110983900617780115e-02 -6.816462618587081426e-03 -2.032978572903931108e-02 2.800975126227214437e-02 -1.333654209921206757e-01 1.368070686496783150e-01 -6.486161641727165861e-02 -6.856149097854292995e-02 -6.268896341237091552e-02 -4.527304381222602148e-02 -6.052031988118391354e-02 -1.606820966444869880e-01 -1.570222775595554177e-01 -4.513195872610553661e-01 -4.800616686278438294e-01 -1.105320945603790461e+00 1.202808458644983869e+00 6.987956721397402537e-01 -1.089901995519301448e+00 -9.052982061633849664e-01 0.000000000000000000e+00 0.000000000000000000e+00 0.000000000000000000e+00 -9.498037893732504837e-16 -1.141301534726248253e-15 0.000000000000000000e+00 -1.968572511238679549e-16 1.736928619895440487e-15 0.000000000000000000e+00 -6.851772183635304662e-16 -2.119160108770481280e-15 1.707476650457008521e-15 0.000000000000000000e+00 0.000000000000000000e+00 0.000000000000000000e+00 0.000000000000000000e+00 -1.099624268147617263e-15 -4.376813592396592920e-15 0.000000000000000000e+00 -2.300451531336560188e-15 -3.777640490428201092e-15 -6.851772183635304662e-16 -2.119160108770481280e-15 1.707476650457008521e-15 0.000000000000000000e+00 -9.137169133680433597e-16 -1.745620475445461339e-15 0.000000000000000000e+00 -1.866113915651468108e-15 -3.982095190408244825e-15 0.000000000000000000e+00 -1.983211650744868730e-15 -5.422571925307488242e-15 -6.851772183635304662e-16 -2.119160108770481280e-15 1.707476650457008521e-15 0.000000000000000000e+00 0.000000000000000000e+00 0.000000000000000000e+00 0.000000000000000000e+00 3.218605327872512944e-16 -7.883422788167407593e-15 0.000000000000000000e+00 -1.923233649339892661e-15 -5.447912009017079551e-15 -6.851772183635304662e-16 -2.119160108770481280e-15 1.707476650457008521e-15 0.000000000000000000e+00 0.000000000000000000e+00 0.000000000000000000e+00 0.000000000000000000e+00 -7.530474397181808682e-16 -4.446898027422165165e-15 0.000000000000000000e+00 -2.561189079016848057e-15 -7.829262776999452406e-15 -1.094822368041409172e-01 -7.898659456573743631e-02 -1.001161056617589501e-01 -6.813605717247422922e-02 1.115790451334265909e-01 1.383894238049936665e-01 2.894433653218656533e-01 3.142931585501511638e-01 2.632667381320060174e-01 -5.313910448233378353e-02 1.616067308940646527e-02 -1.042384495714542558e-01 0.000000000000000000e+00 0.000000000000000000e+00 0.000000000000000000e+00 -1.814734117131755642e-15 -2.033335062581146300e-15 0.000000000000000000e+00 7.242447549990311234e-16 -1.805230281077053388e-15 0.000000000000000000e+00 2.974793732344728592e-15 -3.749672202166957171e-15 -8.713866147162413716e-16 0.000000000000000000e+00 0.000000000000000000e+00 0.000000000000000000e+00 0.000000000000000000e+00 -1.918577874306022590e-15 1.215611350535679941e-15 0.000000000000000000e+00 2.559105734642741328e-15 5.181375324580359770e-15 2.974793732344728592e-15 -3.749672202166957171e-15 -8.713866147162413716e-16 0.000000000000000000e+00 -6.009102590436297953e-16 3.585028418425612002e-15 0.000000000000000000e+00 2.239913775234685583e-15 4.595648603847156203e-15 0.000000000000000000e+00 -1.743174527794580045e-15 3.747652083420209487e-15 2.974793732344728592e-15 -3.749672202166957171e-15 -8.713866147162413716e-16 0.000000000000000000e+00 0.000000000000000000e+00 0.000000000000000000e+00 0.000000000000000000e+00 -3.253104391644304378e-15 -5.319598011221618425e-16 0.000000000000000000e+00 -5.142066231351585012e-16 8.276432981929110951e-15 2.974793732344728592e-15 -3.749672202166957171e-15 -8.713866147162413716e-16 0.000000000000000000e+00 0.000000000000000000e+00 0.000000000000000000e+00 0.000000000000000000e+00 -2.077964687345493989e-15 -1.204956043976749274e-15 0.000000000000000000e+00 -6.733475720915093139e-16 3.579569897396396850e-15
4.500000000000000000e+02 0.000000000000000000e+00 0.000000000000000000e+00 0.000000000000000000e+00 0.000000000000000000e+00 0.000000000000000000e+00 -1.057595355132423358e-02 1.760984788872310691e-02 1.523153904406859271e-01 -5.288115376551257019e-02 -2.294146279784108414e-02 -2.442961993801647802e-01 -3.106779323018367123e-01 -8.280625742303507342e-02 9.100301532952980166e-01 1.750556600838041599e-01 6.338003559082115712e-02 -7.322481519321552002e-01 -9.609810210078659209e-02 -1.259831198746823866e-01 -1.394963441347304989e-01 1.358972637510946491e-01 4.465322139976872495e-02 -1.242401183658662922e-01 -1.479352789490347153e-01 1.479882638480577162e-01 -1.769100882216058726e-02 2.305734851604912712e-03 8.786271579302262422e-03 -1.089040853182492719e-01 -8.791379581051532617e-04 -1.432013485014221356e-02 -2.497682993076102975e-02 -9.486738942929863732e-04 -1.034948318199162927e-03 -4.173420546138589815e-02 7.370487999145929406e-03 1.109324702162615278e-02 -6.731133044148076075e-03 -1.317745977288837904e-02 6.936908575969435997e-02 -2.466179067423608373e-01 1.583761490143923145e-01 -1.036663629223305849e-01 2.347219718592929993e-02 1.449587312253210539e-02 7.324206434613777031e-03 -2.213534099449861875e-02 -2.480747707332600083e-01 -1.878743796403247179e-01 -4.329644325269518812e-01 -4.509109785415665317e-01 -1.334563449322607731e+00 1.303949449554665296e+00 7.203161410045935131e-01 -1.189263034255841234e+00 -1.000341412639319305e+00 0.000000000000000000e+00 0.000000000000000000e+00 0.000000000000000000e+00 -8.941475461838806298e-16 -2.255216817841985572e-15 0.000000000000000000e+00 -9.788110962151074727e-17 2.576974874171018865e-15 0.000000000000000000e+00 -2.355719760225627128e-16 -1.982304626960546385e-15 2.273464198260570876e-15 0.000000000000000000e+00 0.000000000000000000e+00 0.000000000000000000e+00 0.000000000000000000e+00 -3.017834958145539637e-16 -5.489373185237692187e-15 0.000000000000000000e+00 -2.563781051447338711e-15 -2.634619900723335182e-15 -2.355719760225627128e-16 -1.982304626960546385e-15 2.273464198260570876e-15 0.000000000000000000e+00 -7.482325046708860220e-16 -3.559461796954418011e-15 0.000000000000000000e+00 -2.055523904075038114e-15 -4.659090188671644722e-15 0.000000000000000000e+00 -1.701850797354637280e-15 -6.313096289572758308e-15 -2.355719760225627128e-16 -1.982304626960546385e-15 2.273464198260570876e-15 0.000000000000000000e+00 0.000000000000000000e+00 0.000000000000000000e+00 0.000000000000000000e+00 -6.354907704468304964e-16 -8.452434515136626709e-15 0.000000000000000000e+00 -1.570790427162831533e-15 -4.761637906152299562e-15 -2.355719760225627128e-16 -1.982304626960546385e-15 2.273464198260570876e-15 0.000000000000000000e+00 0.000000000000000000e+00 0.000000000000000000e+00 0.000000000000000000e+00 -8.132762013109088059e-16 -5.309637155351774921e-15 0.000000000000000000e+00 -1.970052667695817411e-15 -7.226811475937458746e-15 -4.475439715131969420e-02 -2.965318530452555959e-02 -9.725667520077016515e-02 -1.020739242923993789e-01 3.549606917359084818e-02 1.503503741455974041e-01 6.010420380279659636e-01 2.943816573876479326e-01 6.368584757023719733e-01 -8.868570365399523758e-02 5.902886530432149143e-02 -1.027392545924768474e-01 0.000000000000000000e+00 0.000000000000000000e+00 0.000000000000000000e+00 -1.245516542432231330e-15 -2.281844241903907949e-15 0.000000000000000000e+00 -7.303546998028134361e-16 -3.194892152141304691e-15 0.000000000000000000e+00 3.390223752016343275e-15 -2.196391710794104333e-15 -3.290494663833291186e-16 0.000000000000000000e+00 0.000000000000000000e+00 0.000000000000000000e+00 0.000000000000000000e+00 -1.723754345000487577e-15 1.331881039604656707e-15 0.000000000000000000e+00 3.465162071677534515e-15 4.047216979061765199e-15 3.390223752016343275e-15 -2.196391710794104333e-15 -3.290494663833291186e-16 0.000000000000000000e+00 -8.282135235183376423e-16 2.723534413002309446e-15 0.000000000000000000e+00 1.764901191591565852e-15 3.062211638951473514e-15 0.000000000000000000e+00 -1.578582167816273575e-15 2.990208057766626391e-15 3.390223752016343275e-15 -2.196391710794104333e-15 -3.290494663833291186e-16 0.000000000000000000e+00 0.000000000000000000e+00 0.000000000000000000e+00 0.000000000000000000e+00 -1.647344277711401589e-15 -1.790606698453577748e-15 0.000000000000000000e+00 -9.554106883933504156e-16 5.858699637785074600e-15 3.390223752016343275e-15 -2.196391710794104333e-15 -3.290494663833291186e-16 0.000000000000000000e+00 0.000000000000000000e+00 0.000000000000000000e+00 0.000000000000000000e+00 1.575599283778842071e-16 -1.741516161516473316e-15 0.000000000000000000e+00 1.541384445946161003e-16 3.391534462717007841e-15
